<svg width="20" height="20" viewBox="0 0 20 20" fill="none" xmlns="http://www.w3.org/2000/svg">
<path d="M7.70866 8.12508C6.09783 8.12508 4.79199 6.81925 4.79199 5.20841C4.79199 3.59758 6.09783 2.29175 7.70866 2.29175C9.31949 2.29175 10.6253 3.59758 10.6253 5.20842C10.6253 6.81925 9.31949 8.12508 7.70866 8.12508Z" stroke="#666666" stroke-width="1.25" stroke-linecap="round" stroke-linejoin="round"/>
<path d="M12.5005 2.29175C14.1113 2.29175 15.4172 3.59758 15.4172 5.20842C15.4172 6.81925 14.1113 8.12508 12.5005 8.12508" stroke="#666666" stroke-width="1.25" stroke-linecap="round" stroke-linejoin="round"/>
<path d="M7.70838 10.625C4.2317 10.625 1.35777 13.0578 0.897669 16.0187C0.827 16.4735 1.20648 16.849 1.66672 16.849H13.75C14.2103 16.849 14.5898 16.4735 14.5191 16.0187C14.059 13.0578 11.1851 10.625 7.70838 10.625Z" stroke="#666666" stroke-width="1.25" stroke-linecap="round" stroke-linejoin="round"/>
<path d="M17.2923 16.875H18.5423C19.0026 16.875 19.3819 16.4996 19.3099 16.045C18.9732 13.9201 17.3736 12.024 15.209 11.2573" stroke="#666666" stroke-width="1.25" stroke-linecap="round" stroke-linejoin="round"/>
</svg>
