<svg width="20" height="20" viewBox="0 0 20 20" fill="none" xmlns="http://www.w3.org/2000/svg">
<path d="M10.6251 2.29175C10.6251 1.94657 10.3453 1.66675 10.0001 1.66675C9.6549 1.66675 9.37508 1.94657 9.37508 2.29175C9.37508 4.89196 8.80119 6.62151 7.71135 7.71135C6.62151 8.80119 4.89196 9.37508 2.29175 9.37508C1.94657 9.37508 1.66675 9.6549 1.66675 10.0001C1.66675 10.3453 1.94657 10.6251 2.29175 10.6251C4.89196 10.6251 6.62151 11.199 7.71135 12.2888C8.80119 13.3787 9.37508 15.1082 9.37508 17.7084C9.37508 18.0536 9.6549 18.3334 10.0001 18.3334C10.3453 18.3334 10.6251 18.0536 10.6251 17.7084C10.6251 15.1082 11.199 13.3787 12.2888 12.2888C13.3787 11.199 15.1082 10.6251 17.7084 10.6251C18.0536 10.6251 18.3334 10.3453 18.3334 10.0001C18.3334 9.6549 18.0536 9.37508 17.7084 9.37508C15.1082 9.37508 13.3787 8.80119 12.2888 7.71135C11.199 6.62151 10.6251 4.89196 10.6251 2.29175Z" fill="url(#paint0_linear_100_542)"/>
<defs>
<linearGradient id="paint0_linear_100_542" x1="10.0001" y1="1.66675" x2="10.0001" y2="18.3334" gradientUnits="userSpaceOnUse">
<stop stop-color="#BFD1FA"/>
<stop offset="1" stop-color="#93B5FD"/>
</linearGradient>
</defs>
</svg>
