<svg width="124" height="100" viewBox="0 0 124 100" fill="none" xmlns="http://www.w3.org/2000/svg">
<path d="M61.8785 92.5579C66.4458 92.5769 71.1295 93.5273 74.6554 95.5193C75.8117 96.1726 76.2178 97.6362 75.56 98.7877L75.4957 98.8937C74.8105 99.9623 73.3961 100.319 72.277 99.6873C69.6773 98.2186 65.875 97.3676 61.8582 97.351C57.9711 97.335 54.1874 98.1016 51.4108 99.5549L51.4064 99.5571L51.1487 99.6956L51.1438 99.6983C50.0187 100.32 48.6079 99.9493 47.9331 98.8739L47.8701 98.7679C47.2231 97.6102 47.6428 96.1503 48.805 95.5079L49.1562 95.3187L49.1566 95.3191C52.8248 93.3958 57.4497 92.5396 61.8785 92.5579Z" fill="url(#paint0_linear_2871_10151)"/>
<path d="M60.476 79.7909C72.3663 79.7691 84.4996 83.7304 96.2561 91.5756L96.26 91.5783C97.3263 92.2927 97.6354 93.7094 96.9818 94.7952L96.9139 94.9021C96.1723 96.0004 94.6771 96.2925 93.5736 95.5562C82.4709 88.1472 71.2584 84.5642 60.4844 84.584C49.8905 84.6036 39.5572 88.1058 29.9921 95.1423L29.537 95.4801C28.4755 96.2752 26.9666 96.0647 26.1659 95.0086C25.3649 93.9517 25.5772 92.4497 26.6382 91.6531L27.1317 91.2866L27.1312 91.2862C37.4429 83.7014 48.7602 79.8125 60.476 79.7909Z" fill="url(#paint1_linear_2871_10151)"/>
<path fill-rule="evenodd" clip-rule="evenodd" d="M61.307 0.000933749C71.9445 -0.0574122 82.4171 2.6195 91.705 7.77208C100.993 12.9247 108.781 20.3783 114.311 29.4069C119.841 38.4356 122.926 48.7329 123.264 59.2967C123.445 64.9333 122.839 70.5442 121.485 75.9731C120.328 80.6099 117.02 83.7253 113.034 85.1383C109.09 86.536 104.465 86.2906 100.388 84.3376C94.2661 81.4049 86.7173 78.0133 79.5317 75.3871C72.2455 72.7242 65.6765 70.9808 61.374 71.0762C57.1284 71.1705 50.6804 73.0442 43.5525 75.7795C36.517 78.4794 29.1251 81.895 23.1164 84.84C19.1481 86.7849 14.4973 87.0964 10.5227 85.7528C6.53767 84.4054 3.22782 81.3891 1.99687 76.702C0.569227 71.2655 -0.104905 65.637 0.0132268 59.9733C0.233719 49.4064 3.2031 39.0759 8.63251 29.9871C14.0621 20.8983 21.7676 13.3603 30.9976 8.10596C40.2277 2.85174 50.6695 0.0593714 61.307 0.000933749ZM61.333 4.79313C51.5253 4.84706 41.8985 7.42129 33.3893 12.2651C24.8801 17.1091 17.7779 24.0584 12.7734 32.4356C7.76894 40.8129 5.03188 50.3345 4.82869 60.0732C4.71984 65.2929 5.34055 70.4805 6.65636 75.491C7.66891 79.3461 11.2083 81.6967 15.31 81.8087L15.9961 81.8272L15.7414 81.1911C13.4931 75.575 12.2566 69.4494 12.2566 63.0376C12.2567 35.9131 34.3714 13.9271 61.6476 13.9271C88.9238 13.9271 111.039 35.9131 111.039 63.0376C111.039 69.229 109.884 75.153 107.781 80.6096L107.535 81.2474L108.219 81.2214C109.338 81.1789 110.42 80.9777 111.418 80.6241C114.058 79.6884 116.086 77.7248 116.811 74.8179C118.059 69.8146 118.616 64.6439 118.45 59.4494C118.138 49.7137 115.296 40.2229 110.199 31.9011C105.101 23.5792 97.9217 16.7088 89.3591 11.9585C80.7964 7.20827 71.1409 4.73929 61.333 4.79313ZM61.6476 18.7197C37.0281 18.7197 17.073 38.5633 17.0729 63.0376C17.0729 69.1332 18.3119 74.9402 20.5507 80.2251L20.7366 80.6637L21.1649 80.4538C23.3268 79.3957 25.6707 78.2763 28.1165 77.148L28.5086 76.9668L28.3443 76.5678C26.6271 72.3937 25.6803 67.8251 25.6803 63.0376C25.6804 43.2844 41.7851 27.2743 61.6476 27.2743C81.5101 27.2743 97.6148 43.2844 97.6149 63.0376L97.6123 63.4704C97.5589 67.9369 96.6815 72.207 95.1246 76.1372L94.9659 76.5375L95.359 76.7139C97.8175 77.8178 100.171 78.9151 102.342 79.9537L102.774 80.1604L102.955 79.7179C105.06 74.5695 106.222 68.939 106.222 63.0376C106.222 38.5633 86.2671 18.7197 61.6476 18.7197ZM61.6476 32.0665C44.4418 32.0665 30.4967 45.9346 30.4967 63.0376C30.4967 67.1114 31.2888 71.0005 32.7262 74.5623L32.8998 74.9926L33.3254 74.8065C35.4907 73.861 37.6914 72.9366 39.8782 72.0668L40.2968 71.9006L40.1307 71.4822C39.0918 68.8676 38.5203 66.0186 38.5202 63.0376C38.5203 50.3352 48.8765 40.0405 61.6476 40.0404C74.4188 40.0405 84.7749 50.3352 84.775 63.0376L84.7688 63.5743C84.707 66.2493 84.1848 68.812 83.2791 71.187L83.1192 71.6067L83.5391 71.7677C85.7395 72.6105 87.9505 73.5082 90.124 74.4282L90.5527 74.6094L90.7211 74.1761C92.0618 70.72 92.7985 66.9648 92.7986 63.0376C92.7985 45.9346 78.8534 32.0665 61.6476 32.0665ZM61.6476 44.8331C51.5331 44.8331 43.3367 52.9854 43.3366 63.0376C43.3366 65.4263 43.8003 67.7069 44.6412 69.7961L44.8029 70.1977L45.2114 70.0526C51.1685 67.9345 56.9168 66.3815 61.2669 66.2849C65.8405 66.1835 71.9212 67.6996 78.1794 69.8256L78.5896 69.965L78.7456 69.5616C79.5281 67.5367 79.9586 65.3374 79.9586 63.0376C79.9585 52.9854 71.7621 44.8331 61.6476 44.8331Z" fill="url(#paint2_linear_2871_10151)"/>
<defs>
<linearGradient id="paint0_linear_2871_10151" x1="58.2914" y1="-2.3" x2="50.0718" y2="103.764" gradientUnits="userSpaceOnUse">
<stop stop-color="#FD5832"/>
<stop offset="1" stop-color="#D62800"/>
</linearGradient>
<linearGradient id="paint1_linear_2871_10151" x1="58.2914" y1="-2.3" x2="50.0718" y2="103.764" gradientUnits="userSpaceOnUse">
<stop stop-color="#FD5832"/>
<stop offset="1" stop-color="#D62800"/>
</linearGradient>
<linearGradient id="paint2_linear_2871_10151" x1="58.2914" y1="-2.3" x2="50.0718" y2="103.764" gradientUnits="userSpaceOnUse">
<stop stop-color="#FD5832"/>
<stop offset="1" stop-color="#D62800"/>
</linearGradient>
</defs>
</svg>
